<svg id="图层_1" data-name="图层 1" xmlns="http://www.w3.org/2000/svg" viewBox="0 0 662 122"><defs><style>.cls-1{fill:#fff;}</style></defs><path class="cls-1" d="M65.55,98,24,22H37.71L71.3,85.37,103.38,22H116L76.19,98Z"/><path class="cls-1" d="M135.54,40q0-10.35,3.7-14.17T153.38,22H206q10.29,0,14,3.78t3.7,14.2V80.05q0,10.5-3.7,14.24T206,98H153.38q-10.44,0-14.14-3.81t-3.7-14.17ZM148.2,87.46h62.94V32.36H148.2Z"/><path class="cls-1" d="M262.21,98V22H323.5c5.7,0,9.82,1.16,12.33,3.49s3.78,6.08,3.78,11.26v17q0,7.7-3.78,11.19c-2.51,2.32-6.63,3.49-12.33,3.49H312.35L347.09,98H328.25L297.31,68.4H274.94V98Zm56.32-66.18H274.94V58.54h43.59q4.75,0,6.48-1.72c1.15-1.16,1.73-3.17,1.73-6V39.7q0-4.32-1.77-6.08T318.53,31.85Z"/><path class="cls-1" d="M404,32.36V98H391.33V32.36H356.59V22h82.29V32.36Z"/><path class="cls-1" d="M460.24,98V22h73.23V32.21H473V53.36h37V63.43H473V87.6h61.08V98Z"/><path class="cls-1" d="M553.4,98l36.83-39.2L552.82,22h18.27l26.62,28.77,25-28.77h15.82L605.12,57.68,645.9,98H627.63L597.42,65.59,569.44,98Z"/></svg>